<svg width="362" height="76" viewBox="0 0 362 76" fill="none" xmlns="http://www.w3.org/2000/svg">
<path d="M167.394 75.8772V40.0351H179.117C182.536 40.0351 185.59 40.7544 188.276 42.193C190.963 43.6316 193.074 45.7018 194.609 48.4035C196.144 51.0702 196.912 54.2807 196.912 58.0351C196.912 61.8597 196.127 65.1053 194.557 67.7719C193.021 70.4035 190.91 72.4211 188.224 73.8246C185.537 75.193 182.484 75.8772 179.065 75.8772H167.394ZM172.627 72.0877L171.057 70.9298H178.803C181.141 70.9298 183.252 70.4737 185.136 69.5614C187.055 68.614 188.59 67.193 189.742 65.2983C190.893 63.4035 191.469 60.9825 191.469 58.0351C191.469 55.193 190.893 52.807 189.742 50.8772C188.625 48.9123 187.107 47.4386 185.188 46.4562C183.304 45.4737 181.193 44.9825 178.855 44.9825H170.691L172.627 43.0877V72.0877Z" fill="#1D1F20"/>
<path d="M147.311 60.3509V55.4035H161.704V60.3509H147.311ZM147.154 44.9825L148.358 43.2983V71.7193L146.893 70.8772H164.792V75.8772H143.124V40.0351H164.792V44.9825H147.154Z" fill="#1D1F20"/>
<path d="M124.231 75.8772V43.9825H129.464V75.8772H124.231ZM113.083 44.9825V40.0351H141.136V44.9825H113.083Z" fill="#1D1F20"/>
<path d="M106.614 75.8772L83.5858 45.8246L86.5167 44.9825V75.8772H81.283V40.0351H85.7317L107.975 69.0351H105.829V40.0351H111.063V75.8772H106.614Z" fill="#1D1F20"/>
<path d="M77.993 75.8772H72.7593V40.0351H77.993V75.8772Z" fill="#1D1F20"/>
<path d="M45.3913 62.5614H64.5991V67.5088H45.3913V62.5614ZM38.6921 75.8772L51.4101 40.0351H58.528L71.2459 75.8772H65.9075L54.498 43.7193H55.4401L44.0305 75.8772H38.6921Z" fill="#1D1F20"/>
<path d="M23.4452 59.3509H30.8248C33.1276 59.3509 34.9769 58.7193 36.3725 57.4562C37.7682 56.193 38.466 54.4386 38.466 52.193C38.466 49.807 37.7682 48.0176 36.3725 46.8246C35.0118 45.5965 33.18 44.9825 30.8771 44.9825H23.4452L24.3873 43.7719V75.8772H19.1536V40.0351H31.7669C34.2093 40.0351 36.3377 40.579 38.152 41.6667C39.9664 42.7544 41.3795 44.2105 42.3913 46.0351C43.4032 47.8597 43.9091 49.9123 43.9091 52.193C43.9091 54.4386 43.4032 56.4912 42.3913 58.3509C41.3795 60.1754 39.9489 61.6316 38.0997 62.7193C36.2853 63.7719 34.1569 64.2983 31.7145 64.2983H23.4452V59.3509Z" fill="#1D1F20"/>
<path d="M6.10605 75.8772H0.872314V40.0351H6.10605V75.8772Z" fill="#1D1F20"/>
<path d="M349.822 37.193C347.973 37.193 346.176 36.9123 344.431 36.3509C342.721 35.7895 341.151 34.8772 339.721 33.614C338.29 32.3158 337.086 30.5614 336.109 28.3509L340.453 25.8772C341.675 28.0877 343.018 29.6842 344.483 30.6667C345.949 31.6491 347.781 32.1403 349.979 32.1403C352.107 32.1403 353.712 31.6667 354.794 30.7193C355.91 29.7719 356.469 28.4737 356.469 26.8246C356.469 25.8421 356.224 24.9824 355.736 24.2456C355.282 23.5088 354.462 22.8246 353.276 22.193C352.09 21.5614 350.415 20.9824 348.252 20.4561C345.53 19.7544 343.402 18.8947 341.866 17.8772C340.366 16.8246 339.319 15.6316 338.726 14.2982C338.133 12.9298 337.836 11.4561 337.836 9.87718C337.836 7.91227 338.29 6.21052 339.197 4.77192C340.104 3.29824 341.413 2.15789 343.123 1.35087C344.832 0.508761 346.856 0.0877075 349.194 0.0877075C351.985 0.0877075 354.288 0.631567 356.102 1.71929C357.917 2.77192 359.452 4.22806 360.708 6.08771L356.312 8.92981C355.23 7.59648 354.096 6.64911 352.91 6.08771C351.758 5.49122 350.52 5.19297 349.194 5.19297C347.17 5.19297 345.617 5.59648 344.536 6.4035C343.489 7.21052 342.966 8.36841 342.966 9.87718C342.966 11.1754 343.454 12.2982 344.431 13.2456C345.443 14.193 347.397 15.0175 350.293 15.7193C353.224 16.4561 355.509 17.3333 357.149 18.3509C358.824 19.3333 359.993 20.5263 360.656 21.9298C361.353 23.2982 361.702 24.9474 361.702 26.8772C361.702 28.807 361.214 30.5438 360.237 32.0877C359.26 33.6316 357.882 34.8772 356.102 35.8246C354.323 36.7368 352.229 37.193 349.822 37.193Z" fill="#1D1F20"/>
<path d="M320.078 36.9298C316.484 36.9298 313.327 36.1403 310.605 34.5614C307.918 32.9474 305.825 30.7544 304.324 27.9824C302.824 25.1754 302.074 22.0175 302.074 18.5088C302.074 15.8421 302.528 13.386 303.435 11.1403C304.342 8.89473 305.598 6.94736 307.203 5.29824C308.843 3.64911 310.745 2.36841 312.908 1.45613C315.106 0.543848 317.496 0.0877075 320.078 0.0877075C324.125 0.0877075 327.44 0.929814 330.022 2.61403C332.604 4.26315 334.715 6.49122 336.355 9.29823L331.226 10.8246C329.621 8.61403 327.894 7.1228 326.044 6.35087C324.23 5.54385 322.241 5.14034 320.078 5.14034C317.671 5.14034 315.507 5.71929 313.588 6.87718C311.704 8.03508 310.204 9.61403 309.087 11.614C307.971 13.614 307.412 15.9123 307.412 18.5088C307.412 21.0702 307.971 23.3684 309.087 25.4035C310.204 27.4035 311.704 28.9824 313.588 30.1403C315.507 31.2982 317.671 31.8772 320.078 31.8772C322.381 31.8772 324.474 31.3684 326.359 30.3509C328.278 29.2982 329.795 27.8772 330.912 26.0877C332.028 24.2982 332.587 22.2631 332.587 19.9824L333.372 23.0351H319.764V18.0877H337.245C337.349 18.4386 337.419 18.8421 337.454 19.2982C337.524 19.7544 337.559 20.193 337.559 20.614C337.559 22.8596 337.123 24.9649 336.25 26.9298C335.378 28.8947 334.139 30.6316 332.534 32.1403C330.964 33.6491 329.115 34.8246 326.987 35.6667C324.893 36.5088 322.59 36.9298 320.078 36.9298Z" fill="#1D1F20"/>
<path d="M296.303 36.4035L273.275 6.35088L276.206 5.50877V36.4035H270.972V0.561401H275.421L297.664 29.5614H295.518V0.561401H300.752V36.4035H296.303Z" fill="#1D1F20"/>
<path d="M267.682 36.4035H262.448V0.561401H267.682V36.4035Z" fill="#1D1F20"/>
<path d="M243.118 36.4035V4.50877H248.352V36.4035H243.118ZM231.97 5.50877V0.561401H260.023V5.50877H231.97Z" fill="#1D1F20"/>
<path d="M225.502 36.4035L202.474 6.35088L205.405 5.50877V36.4035H200.171V0.561401H204.62L226.863 29.5614H224.717V0.561401H229.951V36.4035H225.502Z" fill="#1D1F20"/>
<path d="M196.881 36.4035H191.647V0.561401H196.881V36.4035Z" fill="#1D1F20"/>
<path d="M164.715 23.0877H183.923V28.0351H164.715V23.0877ZM158.016 36.4035L170.734 0.561401H177.852L190.57 36.4035H185.232L173.822 4.24562H174.764L163.355 36.4035H158.016Z" fill="#1D1F20"/>
<path d="M142.769 19.8772H150.149C152.452 19.8772 154.301 19.2456 155.697 17.9825C157.092 16.7193 157.79 14.9649 157.79 12.7193C157.79 10.3333 157.092 8.54386 155.697 7.35088C154.336 6.12281 152.504 5.50877 150.201 5.50877H142.769L143.711 4.29825V36.4035H138.478V0.561401H151.091C153.533 0.561401 155.662 1.10526 157.476 2.19298C159.29 3.2807 160.703 4.73684 161.715 6.5614C162.727 8.38596 163.233 10.4386 163.233 12.7193C163.233 14.9649 162.727 17.0175 161.715 18.8772C160.703 20.7018 159.273 22.1579 157.424 23.2456C155.609 24.2982 153.481 24.8246 151.038 24.8246H142.769V19.8772Z" fill="#1D1F20"/>
<path d="M109.51 20.8772V15.9298H123.903V20.8772H109.51ZM109.353 5.50877L110.557 3.82456V32.2456L109.091 31.4035H126.991V36.4035H105.323V0.561401H126.991V5.50877H109.353Z" fill="#1D1F20"/>
<path d="M61.5715 36.4035L68.1137 0.561401H72.7717L82.5588 26.7193H82.7158L92.5029 0.561401H97.1609L103.703 36.4035H98.2077L95.3291 19.3509C94.9104 16.8947 94.5615 14.4737 94.2824 12.0877C94.0032 9.66667 93.8288 7.24561 93.759 4.82456H95.0674C94.4394 7.73684 93.7764 10.2982 93.0786 12.5088C92.4157 14.7193 91.6481 17 90.7758 19.3509L84.6523 35.8246H80.6223L74.4989 19.3509C73.6266 16.9649 72.8415 14.6842 72.1437 12.5088C71.4807 10.2982 70.8352 7.73684 70.2072 4.82456H71.5156C71.4458 7.24561 71.2714 9.66667 70.9923 12.0877C70.7131 14.4737 70.3642 16.8947 69.9455 19.3509L67.067 36.4035H61.5715Z" fill="#1D1F20"/>
<path d="M25.9482 18.5088C25.9482 15.8421 26.4018 13.386 27.309 11.1403C28.2511 8.89473 29.5595 6.94736 31.2343 5.29824C32.9091 3.64911 34.863 2.36841 37.0961 1.45613C39.3641 0.543848 41.8239 0.0877075 44.4757 0.0877075C47.0925 0.0877075 49.5175 0.543848 51.7506 1.45613C53.9836 2.36841 55.9201 3.64911 57.56 5.29824C59.2348 6.94736 60.5258 8.89473 61.433 11.1403C62.375 13.386 62.8461 15.8421 62.8461 18.5088C62.8461 21.1403 62.375 23.5789 61.433 25.8246C60.5258 28.0702 59.2348 30.0351 57.56 31.7193C55.9201 33.3684 53.9836 34.6491 51.7506 35.5614C49.5175 36.4737 47.0925 36.9298 44.4757 36.9298C41.8239 36.9298 39.3641 36.4737 37.0961 35.5614C34.863 34.6491 32.9091 33.3684 31.2343 31.7193C29.5595 30.0351 28.2511 28.0702 27.309 25.8246C26.4018 23.5789 25.9482 21.1403 25.9482 18.5088ZM31.2867 18.5088C31.2867 21.0702 31.8624 23.3684 33.0138 25.4035C34.1652 27.4035 35.7353 28.9824 37.7241 30.1403C39.713 31.2982 41.9635 31.8772 44.4757 31.8772C46.9879 31.8772 49.2209 31.2982 51.1748 30.1403C53.1288 28.9824 54.664 27.4035 55.7805 25.4035C56.932 23.3684 57.5077 21.0702 57.5077 18.5088C57.5077 15.9123 56.932 13.614 55.7805 11.614C54.664 9.61403 53.1288 8.03508 51.1748 6.87718C49.2209 5.71929 46.9879 5.14034 44.4757 5.14034C41.9635 5.14034 39.713 5.71929 37.7241 6.87718C35.7353 8.03508 34.1652 9.61403 33.0138 11.614C31.8624 13.614 31.2867 15.9123 31.2867 18.5088Z" fill="#1D1F20"/>
<path d="M14.1135 37.193C12.2643 37.193 10.4673 36.9123 8.72276 36.3509C7.01308 35.7895 5.44296 34.8772 4.0124 33.614C2.58185 32.3158 1.37809 30.5614 0.401123 28.3509L4.74512 25.8772C5.96633 28.0877 7.30965 29.6842 8.7751 30.6667C10.2405 31.6491 12.0724 32.1403 14.2705 32.1403C16.3989 32.1403 18.0039 31.6667 19.0856 30.7193C20.2021 29.7719 20.7604 28.4737 20.7604 26.8246C20.7604 25.8421 20.5161 24.9824 20.0276 24.2456C19.574 23.5088 18.7541 22.8246 17.5678 22.193C16.3815 21.5614 14.7067 20.9824 12.5434 20.4561C9.82185 19.7544 7.69346 18.8947 6.15823 17.8772C4.65789 16.8246 3.61115 15.6316 3.01799 14.2982C2.42483 12.9298 2.12826 11.4561 2.12826 9.87718C2.12826 7.91227 2.58185 6.21052 3.48903 4.77192C4.39621 3.29824 5.70464 2.15789 7.41433 1.35087C9.12402 0.508761 11.1477 0.0877075 13.4855 0.0877075C16.2768 0.0877075 18.5796 0.631567 20.394 1.71929C22.2084 2.77192 23.7436 4.22806 24.9997 6.08771L20.6033 8.92981C19.5217 7.59648 18.3877 6.64911 17.2014 6.08771C16.05 5.49122 14.8113 5.19297 13.4855 5.19297C11.4618 5.19297 9.90907 5.59648 8.82744 6.4035C7.78069 7.21052 7.25732 8.36841 7.25732 9.87718C7.25732 11.1754 7.7458 12.2982 8.72276 13.2456C9.73462 14.193 11.6885 15.0175 14.5845 15.7193C17.5154 16.4561 19.8008 17.3333 21.4407 18.3509C23.1155 19.3333 24.2844 20.5263 24.9473 21.9298C25.6452 23.2982 25.9941 24.9474 25.9941 26.8772C25.9941 28.807 25.5056 30.5438 24.5286 32.0877C23.5517 33.6316 22.1735 34.8772 20.394 35.8246C18.6145 36.7368 16.521 37.193 14.1135 37.193Z" fill="#1D1F20"/>
</svg>
