<svg width="1304" height="85" viewBox="0 0 1304 85" fill="none" xmlns="http://www.w3.org/2000/svg">
<path d="M1235.81 83V1.27997H1262.69C1270.53 1.27997 1277.53 2.91997 1283.69 6.19997C1289.85 9.47997 1294.69 14.2 1298.21 20.36C1301.73 26.44 1303.49 33.76 1303.49 42.32C1303.49 51.04 1301.69 58.44 1298.09 64.52C1294.57 70.52 1289.73 75.12 1283.57 78.32C1277.41 81.44 1270.41 83 1262.57 83H1235.81ZM1247.81 74.36L1244.21 71.72H1261.97C1267.33 71.72 1272.17 70.68 1276.49 68.6C1280.89 66.44 1284.41 63.2 1287.05 58.88C1289.69 54.56 1291.01 49.04 1291.01 42.32C1291.01 35.84 1289.69 30.4 1287.05 26C1284.49 21.52 1281.01 18.16 1276.61 15.92C1272.29 13.68 1267.45 12.56 1262.09 12.56H1243.37L1247.81 8.23997V74.36Z" fill="#1D1F20"/>
<path d="M1189.77 47.6V36.32H1222.77V47.6H1189.77ZM1189.41 12.56L1192.17 8.71997V73.52L1188.81 71.6H1229.85V83H1180.17V1.27997H1229.85V12.56H1189.41Z" fill="#1D1F20"/>
<path d="M1136.85 83V10.28H1148.85V83H1136.85ZM1111.29 12.56V1.27997H1175.61V12.56H1111.29Z" fill="#1D1F20"/>
<path d="M1096.46 83L1043.66 14.48L1050.38 12.56V83H1038.38V1.27997H1048.58L1099.58 67.4H1094.66V1.27997H1106.66V83H1096.46Z" fill="#1D1F20"/>
<path d="M1030.83 83H1018.83V1.27997H1030.83V83Z" fill="#1D1F20"/>
<path d="M956.086 52.64H1000.13V63.92H956.086V52.64ZM940.726 83L969.886 1.27997H986.206L1015.37 83H1003.13L976.966 9.67998H979.126L952.966 83H940.726Z" fill="#1D1F20"/>
<path d="M905.767 45.32H922.687C927.967 45.32 932.207 43.88 935.407 41C938.607 38.12 940.207 34.12 940.207 29C940.207 23.56 938.607 19.48 935.407 16.76C932.287 13.96 928.087 12.56 922.807 12.56H905.767L907.927 9.79997V83H895.927V1.27997H924.847C930.447 1.27997 935.327 2.51997 939.487 4.99997C943.647 7.47997 946.887 10.8 949.207 14.96C951.527 19.12 952.687 23.8 952.687 29C952.687 34.12 951.527 38.8 949.207 43.04C946.887 47.2 943.607 50.52 939.367 53C935.207 55.4 930.327 56.6 924.727 56.6H905.767V45.32Z" fill="#1D1F20"/>
<path d="M866.011 83H854.011V1.27997H866.011V83Z" fill="#1D1F20"/>
<path d="M802.077 84.8C797.837 84.8 793.717 84.16 789.717 82.88C785.797 81.6 782.197 79.52 778.917 76.64C775.637 73.68 772.877 69.68 770.637 64.64L780.597 59C783.397 64.04 786.477 67.68 789.837 69.92C793.197 72.16 797.397 73.28 802.437 73.28C807.317 73.28 810.997 72.2 813.477 70.04C816.037 67.88 817.317 64.92 817.317 61.16C817.317 58.92 816.757 56.96 815.637 55.28C814.597 53.6 812.717 52.04 809.997 50.6C807.277 49.16 803.437 47.84 798.477 46.64C792.237 45.04 787.357 43.08 783.837 40.76C780.397 38.36 777.997 35.64 776.637 32.6C775.277 29.48 774.597 26.12 774.597 22.52C774.597 18.04 775.637 14.16 777.717 10.88C779.797 7.52002 782.797 4.92002 786.717 3.08002C790.637 1.16001 795.277 0.200012 800.637 0.200012C807.037 0.200012 812.317 1.44001 816.477 3.92001C820.637 6.32002 824.157 9.64002 827.037 13.88L816.957 20.36C814.477 17.32 811.877 15.16 809.157 13.88C806.517 12.52 803.677 11.84 800.637 11.84C795.997 11.84 792.437 12.76 789.957 14.6C787.557 16.44 786.357 19.08 786.357 22.52C786.357 25.48 787.477 28.04 789.717 30.2C792.037 32.36 796.517 34.24 803.157 35.84C809.877 37.52 815.117 39.52 818.877 41.84C822.717 44.08 825.397 46.8 826.917 50C828.517 53.12 829.317 56.88 829.317 61.28C829.317 65.68 828.197 69.64 825.957 73.16C823.717 76.68 820.557 79.52 816.477 81.68C812.397 83.76 807.597 84.8 802.077 84.8Z" fill="#1D1F20"/>
<path d="M733.881 84.2C725.641 84.2 718.401 82.4 712.161 78.8C706.001 75.12 701.201 70.12 697.761 63.8C694.321 57.4 692.601 50.2 692.601 42.2C692.601 36.12 693.641 30.52 695.721 25.4C697.801 20.28 700.681 15.84 704.361 12.08C708.121 8.32002 712.481 5.40002 717.441 3.32001C722.481 1.24001 727.961 0.200012 733.881 0.200012C743.161 0.200012 750.761 2.12002 756.681 5.96002C762.601 9.72002 767.441 14.8 771.201 21.2L759.441 24.68C755.761 19.64 751.801 16.24 747.561 14.48C743.401 12.64 738.841 11.72 733.881 11.72C728.361 11.72 723.401 13.04 719.001 15.68C714.681 18.32 711.241 21.92 708.681 26.48C706.121 31.04 704.841 36.28 704.841 42.2C704.841 48.04 706.121 53.28 708.681 57.92C711.241 62.48 714.681 66.08 719.001 68.72C723.401 71.36 728.361 72.68 733.881 72.68C739.161 72.68 743.961 71.52 748.281 69.2C752.681 66.8 756.161 63.56 758.721 59.48C761.281 55.4 762.561 50.76 762.561 45.56L764.361 52.52H733.161V41.24H773.241C773.481 42.04 773.641 42.96 773.721 44C773.881 45.04 773.961 46.04 773.961 47C773.961 52.12 772.961 56.92 770.961 61.4C768.961 65.88 766.121 69.84 762.441 73.28C758.841 76.72 754.601 79.4 749.721 81.32C744.921 83.24 739.641 84.2 733.881 84.2Z" fill="#1D1F20"/>
<path d="M679.37 83L626.57 14.48L633.29 12.56V83H621.29V1.27997H631.49L682.49 67.4H677.57V1.27997H689.57V83H679.37Z" fill="#1D1F20"/>
<path d="M613.746 83H601.746V1.27997H613.746V83Z" fill="#1D1F20"/>
<path d="M557.426 83V10.28H569.426V83H557.426ZM531.866 12.56V1.27997H596.186V12.56H531.866Z" fill="#1D1F20"/>
<path d="M517.035 83L464.235 14.48L470.955 12.56V83H458.955V1.27997H469.155L520.155 67.4H515.235V1.27997H527.235V83H517.035Z" fill="#1D1F20"/>
<path d="M451.412 83H439.412V1.27997H451.412V83Z" fill="#1D1F20"/>
<path d="M377.662 52.64H421.702V63.92H377.662V52.64ZM362.302 83L391.462 1.27997H407.782L436.942 83H424.702L398.542 9.67998H400.702L374.542 83H362.302Z" fill="#1D1F20"/>
<path d="M327.344 45.32H344.264C349.544 45.32 353.784 43.88 356.984 41C360.184 38.12 361.784 34.12 361.784 29C361.784 23.56 360.184 19.48 356.984 16.76C353.864 13.96 349.664 12.56 344.384 12.56H327.344L329.504 9.79997V83H317.504V1.27997H346.424C352.024 1.27997 356.904 2.51997 361.064 4.99997C365.224 7.47997 368.464 10.8 370.784 14.96C373.104 19.12 374.264 23.8 374.264 29C374.264 34.12 373.104 38.8 370.784 43.04C368.464 47.2 365.184 50.52 360.944 53C356.784 55.4 351.904 56.6 346.304 56.6H327.344V45.32Z" fill="#1D1F20"/>
<path d="M251.087 47.6V36.32H284.087V47.6H251.087ZM250.727 12.56L253.487 8.71997V73.52L250.127 71.6H291.167V83H241.487V1.27997H291.167V12.56H250.727Z" fill="#1D1F20"/>
<path d="M141.172 83L156.172 1.27997H166.852L189.292 60.92H189.652L212.092 1.27997H222.772L237.772 83H225.172L218.572 44.12C217.612 38.52 216.812 33 216.172 27.56C215.532 22.04 215.132 16.52 214.972 11H217.972C216.532 17.64 215.012 23.48 213.412 28.52C211.892 33.56 210.132 38.76 208.132 44.12L194.092 81.68H184.852L170.812 44.12C168.812 38.68 167.012 33.48 165.412 28.52C163.892 23.48 162.412 17.64 160.972 11H163.972C163.812 16.52 163.412 22.04 162.772 27.56C162.132 33 161.332 38.52 160.372 44.12L153.772 83H141.172Z" fill="#1D1F20"/>
<path d="M59.4944 42.2C59.4944 36.12 60.5344 30.52 62.6144 25.4C64.7744 20.28 67.7744 15.84 71.6144 12.08C75.4544 8.32002 79.9344 5.40002 85.0544 3.32001C90.2544 1.24001 95.8944 0.200012 101.974 0.200012C107.974 0.200012 113.534 1.24001 118.654 3.32001C123.774 5.40002 128.214 8.32002 131.974 12.08C135.814 15.84 138.774 20.28 140.854 25.4C143.014 30.52 144.094 36.12 144.094 42.2C144.094 48.2 143.014 53.76 140.854 58.88C138.774 64 135.814 68.48 131.974 72.32C128.214 76.08 123.774 79 118.654 81.08C113.534 83.16 107.974 84.2 101.974 84.2C95.8944 84.2 90.2544 83.16 85.0544 81.08C79.9344 79 75.4544 76.08 71.6144 72.32C67.7744 68.48 64.7744 64 62.6144 58.88C60.5344 53.76 59.4944 48.2 59.4944 42.2ZM71.7344 42.2C71.7344 48.04 73.0544 53.28 75.6944 57.92C78.3344 62.48 81.9344 66.08 86.4944 68.72C91.0544 71.36 96.2144 72.68 101.974 72.68C107.734 72.68 112.854 71.36 117.334 68.72C121.814 66.08 125.334 62.48 127.894 57.92C130.534 53.28 131.854 48.04 131.854 42.2C131.854 36.28 130.534 31.04 127.894 26.48C125.334 21.92 121.814 18.32 117.334 15.68C112.854 13.04 107.734 11.72 101.974 11.72C96.2144 11.72 91.0544 13.04 86.4944 15.68C81.9344 18.32 78.3344 21.92 75.6944 26.48C73.0544 31.04 71.7344 36.28 71.7344 42.2Z" fill="#1D1F20"/>
<path d="M32.3599 84.8C28.1199 84.8 23.9999 84.16 19.9999 82.88C16.0799 81.6 12.4799 79.52 9.19992 76.64C5.91992 73.68 3.15992 69.68 0.919922 64.64L10.8799 59C13.6799 64.04 16.7599 67.68 20.1199 69.92C23.4799 72.16 27.6799 73.28 32.7199 73.28C37.5999 73.28 41.2799 72.2 43.7599 70.04C46.3199 67.88 47.5999 64.92 47.5999 61.16C47.5999 58.92 47.0399 56.96 45.9199 55.28C44.8799 53.6 42.9999 52.04 40.2799 50.6C37.5599 49.16 33.7199 47.84 28.7599 46.64C22.5199 45.04 17.6399 43.08 14.1199 40.76C10.6799 38.36 8.27992 35.64 6.91992 32.6C5.55992 29.48 4.87992 26.12 4.87992 22.52C4.87992 18.04 5.91992 14.16 7.99992 10.88C10.0799 7.52002 13.0799 4.92002 16.9999 3.08002C20.9199 1.16001 25.5599 0.200012 30.9199 0.200012C37.3199 0.200012 42.5999 1.44001 46.7599 3.92001C50.9199 6.32002 54.4399 9.64002 57.3199 13.88L47.2399 20.36C44.7599 17.32 42.1599 15.16 39.4399 13.88C36.7999 12.52 33.9599 11.84 30.9199 11.84C26.2799 11.84 22.7199 12.76 20.2399 14.6C17.8399 16.44 16.6399 19.08 16.6399 22.52C16.6399 25.48 17.7599 28.04 19.9999 30.2C22.3199 32.36 26.7999 34.24 33.4399 35.84C40.1599 37.52 45.3999 39.52 49.1599 41.84C52.9999 44.08 55.6799 46.8 57.1999 50C58.7999 53.12 59.5999 56.88 59.5999 61.28C59.5999 65.68 58.4799 69.64 56.2399 73.16C53.9999 76.68 50.8399 79.52 46.7599 81.68C42.6799 83.76 37.8799 84.8 32.3599 84.8Z" fill="#1D1F20"/>
</svg>
