<svg width="24" height="24" viewBox="0 0 24 24" fill="none" xmlns="http://www.w3.org/2000/svg">
<path d="M17.8532 13.7258L12.2282 19.3508C12.1411 19.4382 12.0376 19.5075 11.9236 19.5548C11.8097 19.6022 11.6875 19.6265 11.5641 19.6265C11.4407 19.6265 11.3186 19.6022 11.2046 19.5548C11.0907 19.5075 10.9872 19.4382 10.9001 19.3508L5.27506 13.7258C5.09894 13.5497 5 13.3108 5 13.0617C5 12.8126 5.09894 12.5738 5.27506 12.3977C5.45118 12.2215 5.69005 12.1226 5.93913 12.1226C6.1882 12.1226 6.42707 12.2215 6.60319 12.3977L10.6274 16.4219V4.9375C10.6274 4.68886 10.7262 4.4504 10.902 4.27459C11.0778 4.09877 11.3163 4 11.5649 4C11.8135 4 12.052 4.09877 12.2278 4.27459C12.4036 4.4504 12.5024 4.68886 12.5024 4.9375V16.4219L16.5266 12.3969C16.7027 12.2208 16.9416 12.1218 17.1907 12.1218C17.4398 12.1218 17.6786 12.2208 17.8548 12.3969C18.0309 12.573 18.1298 12.8119 18.1298 13.0609C18.1298 13.31 18.0309 13.5489 17.8548 13.725L17.8532 13.7258Z" fill="black"/>
</svg>
