<svg width="24" height="24" viewBox="0 0 24 24" fill="none" xmlns="http://www.w3.org/2000/svg">
<path d="M18.2883 11.4133C18.2012 11.5007 18.0977 11.57 17.9837 11.6173C17.8698 11.6647 17.7476 11.689 17.6242 11.689C17.5008 11.689 17.3787 11.6647 17.2647 11.6173C17.1507 11.57 17.0472 11.5007 16.9602 11.4133L12.9375 7.39063V18.875C12.9375 19.1236 12.8387 19.3621 12.6629 19.5379C12.4871 19.7137 12.2486 19.8125 12 19.8125C11.7514 19.8125 11.5129 19.7137 11.3371 19.5379C11.1613 19.3621 11.0625 19.1236 11.0625 18.875V7.39063L7.03828 11.4133C6.86216 11.5894 6.62329 11.6883 6.37422 11.6883C6.12514 11.6883 5.88627 11.5894 5.71015 11.4133C5.53403 11.2372 5.43509 10.9983 5.43509 10.7492C5.43509 10.5001 5.53403 10.2613 5.71015 10.0852L11.3352 4.46016C11.4222 4.37276 11.5257 4.30341 11.6397 4.25609C11.7537 4.20877 11.8758 4.18442 11.9992 4.18442C12.1226 4.18442 12.2448 4.20877 12.3587 4.25609C12.4727 4.30341 12.5762 4.37276 12.6633 4.46016L18.2883 10.0852C18.3757 10.1723 18.445 10.2757 18.4923 10.3897C18.5397 10.5037 18.564 10.6258 18.564 10.7492C18.564 10.8726 18.5397 10.9948 18.4923 11.1087C18.445 11.2227 18.3757 11.3262 18.2883 11.4133Z" fill="black"/>
</svg>
